<svg xmlns="http://www.w3.org/2000/svg" xmlns:xlink="http://www.w3.org/1999/xlink" width="500" zoomAndPan="magnify" viewBox="0 0 375 374.999991" height="500" preserveAspectRatio="xMidYMid meet" version="1.0"><defs><g/><clipPath id="6469a4352f"><path d="M 41 123.816406 L 173.226562 123.816406 L 173.226562 257 L 41 257 Z M 41 123.816406 " clip-rule="nonzero"/></clipPath><clipPath id="62c50dc439"><path d="M 23.226562 199 L 92 199 L 92 259.566406 L 23.226562 259.566406 Z M 23.226562 199 " clip-rule="nonzero"/></clipPath></defs><g clip-path="url(#6469a4352f)"><path fill="#ffffff" d="M 107.382812 123.859375 C 71.078125 123.859375 41.535156 153.683594 41.535156 190.332031 C 41.535156 191.515625 42.492188 192.46875 43.671875 192.46875 L 103.695312 192.46875 L 73.6875 245.035156 C 73.105469 246.058594 73.453125 247.351562 74.464844 247.9375 C 84.441406 253.761719 95.820312 256.84375 107.371094 256.84375 C 143.671875 256.84375 173.214844 226.996094 173.214844 190.324219 C 173.226562 153.683594 143.695312 123.859375 107.382812 123.859375 Z M 57.5625 188.195312 C 58.675781 161.398438 80.59375 139.941406 107.394531 139.941406 C 134.890625 139.941406 157.269531 162.542969 157.269531 190.332031 C 157.269531 218.144531 134.902344 240.773438 107.394531 240.773438 C 99.351562 240.773438 91.425781 238.804688 84.339844 235.046875 L 108.945312 191.941406 L 109.261719 191.402344 C 109.28125 191.355469 109.304688 191.324219 109.328125 191.277344 C 109.40625 191.121094 109.460938 190.964844 109.496094 190.796875 C 109.496094 190.785156 109.507812 190.761719 109.507812 190.75 C 109.507812 190.75 109.507812 190.738281 109.507812 190.738281 C 109.597656 190.242188 109.519531 189.714844 109.261719 189.265625 C 109.238281 189.21875 109.214844 189.1875 109.179688 189.140625 C 108.789062 188.558594 108.125 188.195312 107.40625 188.195312 Z M 107.382812 252.582031 C 97.292969 252.582031 87.339844 250.0625 78.480469 245.292969 L 82.203125 238.769531 C 89.941406 242.886719 98.597656 245.058594 107.382812 245.058594 C 137.242188 245.058594 161.53125 220.519531 161.53125 190.34375 C 161.53125 160.207031 137.242188 135.679688 107.382812 135.679688 C 78.234375 135.679688 54.390625 159.046875 53.277344 188.207031 L 45.855469 188.207031 C 46.980469 154.898438 74.148438 128.144531 107.382812 128.144531 C 141.324219 128.144531 168.941406 156.042969 168.941406 190.34375 C 168.953125 224.65625 141.335938 252.582031 107.382812 252.582031 Z M 107.382812 252.582031 " fill-opacity="1" fill-rule="nonzero"/></g><g clip-path="url(#62c50dc439)"><path fill="#ffffff" d="M 90.929688 202.503906 C 91.121094 202.175781 91.210938 201.804688 91.210938 201.433594 C 91.210938 201.207031 91.175781 200.972656 91.097656 200.746094 C 91.054688 200.613281 90.996094 200.488281 90.917969 200.367188 C 90.535156 199.703125 89.828125 199.296875 89.074219 199.296875 L 25.363281 199.296875 C 24.183594 199.296875 23.226562 200.253906 23.226562 201.433594 C 23.226562 225.074219 35.835938 247.148438 56.113281 259.046875 C 56.4375 259.238281 56.820312 259.339844 57.191406 259.339844 C 57.371094 259.339844 57.5625 259.316406 57.742188 259.273438 C 58.292969 259.125 58.765625 258.765625 59.046875 258.269531 L 88.433594 206.867188 Z M 85.386719 203.582031 L 62.285156 244 C 48.585938 235.160156 39.941406 219.988281 39.242188 203.582031 Z M 56.425781 254.234375 C 39.128906 243.246094 28.242188 224.160156 27.535156 203.582031 L 34.957031 203.582031 C 35.65625 221.519531 45.125 238.105469 60.148438 247.710938 Z M 56.425781 254.234375 " fill-opacity="1" fill-rule="nonzero"/></g><path fill="#ffffff" d="M 133.6875 194.425781 C 133.6875 200.332031 138.457031 205.144531 144.3125 205.144531 C 150.171875 205.144531 154.941406 200.34375 154.941406 194.425781 C 154.941406 188.546875 150.171875 183.753906 144.3125 183.753906 C 138.445312 183.753906 133.6875 188.546875 133.6875 194.425781 Z M 144.3125 188.027344 C 147.8125 188.027344 150.667969 190.894531 150.667969 194.417969 C 150.667969 197.957031 147.824219 200.847656 144.3125 200.847656 C 140.816406 200.847656 137.960938 197.957031 137.960938 194.417969 C 137.960938 190.894531 140.804688 188.027344 144.3125 188.027344 Z M 144.3125 188.027344 " fill-opacity="1" fill-rule="nonzero"/><path fill="#ffffff" d="M 112.882812 164.660156 C 118.742188 164.660156 123.507812 159.855469 123.507812 153.953125 C 123.507812 148.046875 118.742188 143.246094 112.882812 143.246094 C 107.023438 143.246094 102.253906 148.046875 102.253906 153.953125 C 102.265625 159.855469 107.023438 164.660156 112.882812 164.660156 Z M 112.882812 147.507812 C 116.378906 147.507812 119.234375 150.398438 119.234375 153.941406 C 119.234375 157.484375 116.390625 160.375 112.882812 160.375 C 109.382812 160.375 106.527344 157.484375 106.527344 153.941406 C 106.539062 150.398438 109.382812 147.507812 112.882812 147.507812 Z M 112.882812 147.507812 " fill-opacity="1" fill-rule="nonzero"/><path fill="#ffffff" d="M 84.046875 154.648438 C 78.1875 154.648438 73.417969 159.453125 73.417969 165.355469 C 73.417969 171.261719 78.1875 176.0625 84.046875 176.0625 C 89.882812 176.0625 94.628906 171.261719 94.628906 165.355469 C 94.628906 159.453125 89.882812 154.648438 84.046875 154.648438 Z M 84.046875 171.800781 C 80.550781 171.800781 77.691406 168.910156 77.691406 165.367188 C 77.691406 161.824219 80.539062 158.933594 84.046875 158.933594 C 87.523438 158.933594 90.355469 161.824219 90.355469 165.367188 C 90.355469 168.910156 87.523438 171.800781 84.046875 171.800781 Z M 84.046875 171.800781 " fill-opacity="1" fill-rule="nonzero"/><path fill="#ffffff" d="M 70.808594 218.257812 C 74.699219 218.257812 77.761719 215.1875 77.761719 211.261719 C 77.761719 207.429688 74.644531 204.3125 70.808594 204.3125 C 67.007812 204.3125 63.90625 207.429688 63.90625 211.261719 C 63.90625 215.121094 66.996094 218.257812 70.808594 218.257812 Z M 70.808594 208.585938 C 72.304688 208.585938 73.476562 209.753906 73.476562 211.261719 C 73.476562 212.78125 72.304688 213.972656 70.808594 213.972656 C 69.335938 213.972656 68.191406 212.78125 68.191406 211.261719 C 68.179688 209.753906 69.335938 208.585938 70.808594 208.585938 Z M 70.808594 208.585938 " fill-opacity="1" fill-rule="nonzero"/><path fill="#ffffff" d="M 114.355469 177.46875 C 114.355469 173.609375 111.238281 170.472656 107.40625 170.472656 C 103.570312 170.472656 100.453125 173.609375 100.453125 177.46875 C 100.453125 181.324219 103.570312 184.464844 107.40625 184.464844 C 111.238281 184.464844 114.355469 181.324219 114.355469 177.46875 Z M 104.738281 177.46875 C 104.738281 175.972656 105.929688 174.746094 107.40625 174.746094 C 108.878906 174.746094 110.070312 175.960938 110.070312 177.46875 C 110.070312 178.964844 108.878906 180.179688 107.40625 180.179688 C 105.941406 180.191406 104.738281 178.964844 104.738281 177.46875 Z M 104.738281 177.46875 " fill-opacity="1" fill-rule="nonzero"/><path fill="#ffffff" d="M 105.132812 216.234375 C 101.296875 216.234375 98.183594 219.371094 98.183594 223.230469 C 98.183594 227.085938 101.296875 230.222656 105.132812 230.222656 C 108.96875 230.222656 112.082031 227.085938 112.082031 223.230469 C 112.082031 219.371094 108.96875 216.234375 105.132812 216.234375 Z M 105.132812 225.9375 C 103.660156 225.9375 102.46875 224.722656 102.46875 223.21875 C 102.46875 221.722656 103.660156 220.507812 105.132812 220.507812 C 106.605469 220.507812 107.796875 221.722656 107.796875 223.21875 C 107.796875 224.722656 106.605469 225.9375 105.132812 225.9375 Z M 105.132812 225.9375 " fill-opacity="1" fill-rule="nonzero"/><path fill="#ffffff" d="M 67.953125 224.523438 C 67.953125 219.046875 63.554688 214.601562 58.148438 214.601562 C 52.738281 214.601562 48.339844 219.054688 48.339844 224.523438 C 48.339844 229.964844 52.738281 234.40625 58.148438 234.40625 C 63.554688 234.40625 67.953125 229.976562 67.953125 224.523438 Z M 52.625 224.523438 C 52.625 221.40625 55.097656 218.875 58.148438 218.875 C 61.195312 218.875 63.667969 221.40625 63.667969 224.523438 C 63.667969 227.558594 61.136719 230.121094 58.148438 230.121094 C 55.097656 230.121094 52.625 227.613281 52.625 224.523438 Z M 52.625 224.523438 " fill-opacity="1" fill-rule="nonzero"/><path fill="#ffffff" d="M 135.226562 180.191406 C 139.0625 180.191406 142.175781 177.050781 142.175781 173.195312 C 142.175781 169.335938 139.0625 166.199219 135.226562 166.199219 C 131.390625 166.199219 128.277344 169.335938 128.277344 173.195312 C 128.277344 177.050781 131.390625 180.191406 135.226562 180.191406 Z M 135.226562 170.472656 C 136.699219 170.472656 137.894531 171.6875 137.894531 173.183594 C 137.894531 174.679688 136.699219 175.90625 135.226562 175.90625 C 133.753906 175.90625 132.5625 174.691406 132.5625 173.183594 C 132.550781 171.699219 133.753906 170.472656 135.226562 170.472656 Z M 135.226562 170.472656 " fill-opacity="1" fill-rule="nonzero"/><path fill="#ffffff" d="M 120.945312 193.753906 C 115.085938 193.753906 110.316406 198.542969 110.316406 204.425781 C 110.316406 210.328125 115.085938 215.132812 120.945312 215.132812 C 126.804688 215.132812 131.574219 210.328125 131.574219 204.425781 C 131.574219 198.53125 126.804688 193.753906 120.945312 193.753906 Z M 120.945312 210.859375 C 117.449219 210.859375 114.589844 207.96875 114.589844 204.425781 C 114.589844 200.90625 117.4375 198.039062 120.945312 198.039062 C 124.453125 198.039062 127.300781 200.90625 127.300781 204.425781 C 127.289062 207.96875 124.441406 210.859375 120.945312 210.859375 Z M 120.945312 210.859375 " fill-opacity="1" fill-rule="nonzero"/><g fill="#ffffff" fill-opacity="1"><g transform="translate(175.99218, 217.400626)"><g><path d="M 15.203125 -50.796875 C 22.023438 -50.898438 27.265625 -50.03125 30.921875 -48.1875 C 34.578125 -46.351562 36.40625 -43.625 36.40625 -40 C 36.40625 -38.1875 35.789062 -36.519531 34.5625 -35 C 33.332031 -33.476562 31.753906 -32.117188 29.828125 -30.921875 C 27.910156 -29.722656 25.875 -28.671875 23.71875 -27.765625 C 21.5625 -26.859375 19.492188 -26.097656 17.515625 -25.484375 C 15.546875 -24.867188 13.921875 -24.425781 12.640625 -24.15625 C 12.585938 -22.019531 12.453125 -19.882812 12.234375 -17.75 C 12.023438 -15.625 11.84375 -13.519531 11.6875 -11.4375 C 11.625 -10.101562 11.609375 -8.632812 11.640625 -7.03125 C 11.671875 -5.4375 11.6875 -4.210938 11.6875 -3.359375 C 11.6875 -2.128906 11.285156 -1.222656 10.484375 -0.640625 C 9.679688 -0.0546875 8.828125 0.234375 7.921875 0.234375 C 6.484375 0.234375 5.429688 -0.269531 4.765625 -1.28125 C 4.097656 -2.289062 3.765625 -3.703125 3.765625 -5.515625 C 3.765625 -6.160156 3.816406 -7.1875 3.921875 -8.59375 C 4.023438 -10.007812 4.144531 -11.597656 4.28125 -13.359375 C 4.414062 -15.117188 4.546875 -16.820312 4.671875 -18.46875 C 4.804688 -20.125 4.898438 -21.515625 4.953125 -22.640625 C 5.066406 -24.722656 5.109375 -27.003906 5.078125 -29.484375 C 5.054688 -31.960938 4.988281 -34.375 4.875 -36.71875 C 4.875 -37.363281 4.820312 -38.269531 4.71875 -39.4375 C 4.613281 -40.613281 4.503906 -41.785156 4.390625 -42.953125 C 4.285156 -44.128906 4.191406 -45.0625 4.109375 -45.75 C 4.035156 -46.445312 4 -46.609375 4 -46.234375 C 4.050781 -47.734375 4.554688 -48.785156 5.515625 -49.390625 C 6.472656 -50.003906 7.789062 -50.390625 9.46875 -50.546875 C 11.15625 -50.710938 13.066406 -50.796875 15.203125 -50.796875 Z M 4 -46.234375 Z M 4 -46.234375 Z M 4 -46.234375 L 4 -46.15625 C 4 -46.15625 4 -46.179688 4 -46.234375 Z M 12.640625 -31.84375 C 13.441406 -32.101562 14.65625 -32.488281 16.28125 -33 C 17.90625 -33.507812 19.582031 -34.132812 21.3125 -34.875 C 23.050781 -35.625 24.53125 -36.425781 25.75 -37.28125 C 26.976562 -38.132812 27.59375 -38.988281 27.59375 -39.84375 C 27.59375 -40.582031 27.257812 -41.113281 26.59375 -41.4375 C 25.925781 -41.757812 25.148438 -41.984375 24.265625 -42.109375 C 23.390625 -42.242188 22.582031 -42.367188 21.84375 -42.484375 C 20.03125 -42.910156 18.269531 -43.125 16.5625 -43.125 C 14.851562 -43.125 13.359375 -43.066406 12.078125 -42.953125 C 12.234375 -41.140625 12.351562 -39.300781 12.4375 -37.4375 C 12.519531 -35.570312 12.585938 -33.707031 12.640625 -31.84375 Z M 12.640625 -31.84375 "/></g></g></g><g fill="#ffffff" fill-opacity="1"><g transform="translate(218.148218, 217.400626)"><g><path d="M 9.765625 -44.3125 C 9.117188 -44.3125 8.476562 -44.472656 7.84375 -44.796875 C 7.144531 -45.222656 6.648438 -45.71875 6.359375 -46.28125 C 6.066406 -46.84375 5.921875 -47.414062 5.921875 -48 C 5.921875 -49.0625 6.304688 -50.03125 7.078125 -50.90625 C 7.847656 -51.789062 8.769531 -52.234375 9.84375 -52.234375 C 10.476562 -52.234375 11.117188 -52.078125 11.765625 -51.765625 C 12.453125 -51.390625 12.941406 -50.90625 13.234375 -50.3125 C 13.535156 -49.726562 13.6875 -49.144531 13.6875 -48.5625 C 13.6875 -47.488281 13.296875 -46.507812 12.515625 -45.625 C 11.742188 -44.75 10.828125 -44.3125 9.765625 -44.3125 Z M 7.921875 0 C 6.847656 0 5.941406 -0.375 5.203125 -1.125 C 4.722656 -1.601562 4.398438 -2.210938 4.234375 -2.953125 C 4.078125 -3.703125 4 -4.476562 4 -5.28125 C 4 -6.082031 4.035156 -6.867188 4.109375 -7.640625 C 4.191406 -8.410156 4.234375 -9.0625 4.234375 -9.59375 C 4.234375 -13.332031 4.242188 -17.382812 4.265625 -21.75 C 4.296875 -26.125 4.34375 -30.179688 4.40625 -33.921875 C 4.457031 -35.097656 4.910156 -36.046875 5.765625 -36.765625 C 6.617188 -37.484375 7.578125 -37.84375 8.640625 -37.84375 C 9.703125 -37.84375 10.609375 -37.46875 11.359375 -36.71875 C 11.835938 -36.238281 12.15625 -35.625 12.3125 -34.875 C 12.476562 -34.132812 12.5625 -33.363281 12.5625 -32.5625 C 12.5625 -31.757812 12.519531 -30.984375 12.4375 -30.234375 C 12.351562 -29.492188 12.3125 -28.828125 12.3125 -28.234375 C 12.257812 -24.503906 12.242188 -20.453125 12.265625 -16.078125 C 12.296875 -11.703125 12.257812 -7.648438 12.15625 -3.921875 C 12.101562 -2.742188 11.648438 -1.796875 10.796875 -1.078125 C 9.941406 -0.359375 8.984375 0 7.921875 0 Z M 7.921875 0 "/></g></g></g><g fill="#ffffff" fill-opacity="1"><g transform="translate(233.826692, 217.400626)"><g><path d="M 25.046875 0 C 24.242188 0 23.441406 -0.078125 22.640625 -0.234375 C 21.835938 -0.398438 21.09375 -0.507812 20.40625 -0.5625 C 19.5 -0.664062 18.390625 -0.835938 17.078125 -1.078125 C 15.773438 -1.316406 14.535156 -1.476562 13.359375 -1.5625 C 12.179688 -1.644531 11.25 -1.472656 10.5625 -1.046875 C 9.863281 -0.617188 9.171875 -0.40625 8.484375 -0.40625 C 7.460938 -0.40625 6.578125 -0.75 5.828125 -1.4375 C 5.085938 -2.132812 4.71875 -3.015625 4.71875 -4.078125 C 4.71875 -5.304688 5.117188 -6.53125 5.921875 -7.75 C 6.722656 -8.976562 7.441406 -10.046875 8.078125 -10.953125 C 9.734375 -13.515625 11.535156 -15.96875 13.484375 -18.3125 C 15.429688 -20.664062 17.523438 -22.851562 19.765625 -24.875 C 19.546875 -24.875 19.316406 -24.882812 19.078125 -24.90625 C 18.835938 -24.9375 18.582031 -24.953125 18.3125 -24.953125 C 16.5625 -24.953125 14.816406 -24.78125 13.078125 -24.4375 C 11.347656 -24.09375 9.578125 -23.921875 7.765625 -23.921875 C 6.640625 -23.921875 5.726562 -24.304688 5.03125 -25.078125 C 4.34375 -25.847656 4 -26.71875 4 -27.6875 C 4 -28.476562 4.238281 -29.222656 4.71875 -29.921875 C 5.300781 -30.773438 6.300781 -31.398438 7.71875 -31.796875 C 9.132812 -32.203125 10.785156 -32.457031 12.671875 -32.5625 C 14.566406 -32.664062 16.5 -32.648438 18.46875 -32.515625 C 20.445312 -32.378906 22.316406 -32.175781 24.078125 -31.90625 C 25.835938 -31.644531 27.28125 -31.359375 28.40625 -31.046875 C 29.363281 -30.828125 30.066406 -30.316406 30.515625 -29.515625 C 30.972656 -28.710938 31.203125 -27.859375 31.203125 -26.953125 C 31.203125 -25.410156 30.734375 -24.28125 29.796875 -23.5625 C 28.867188 -22.84375 27.894531 -22.054688 26.875 -21.203125 C 24.75 -19.390625 22.722656 -17.425781 20.796875 -15.3125 C 18.878906 -13.207031 17.117188 -10.984375 15.515625 -8.640625 C 16.210938 -8.585938 17.320312 -8.519531 18.84375 -8.4375 C 20.363281 -8.351562 21.945312 -8.191406 23.59375 -7.953125 C 25.25 -7.710938 26.660156 -7.285156 27.828125 -6.671875 C 29.003906 -6.066406 29.59375 -5.203125 29.59375 -4.078125 C 29.59375 -2.960938 29.191406 -2.003906 28.390625 -1.203125 C 27.597656 -0.398438 26.484375 0 25.046875 0 Z M 25.046875 0 "/></g></g></g><g fill="#ffffff" fill-opacity="1"><g transform="translate(267.023471, 217.400626)"><g><path d="M 25.046875 0 C 24.242188 0 23.441406 -0.078125 22.640625 -0.234375 C 21.835938 -0.398438 21.09375 -0.507812 20.40625 -0.5625 C 19.5 -0.664062 18.390625 -0.835938 17.078125 -1.078125 C 15.773438 -1.316406 14.535156 -1.476562 13.359375 -1.5625 C 12.179688 -1.644531 11.25 -1.472656 10.5625 -1.046875 C 9.863281 -0.617188 9.171875 -0.40625 8.484375 -0.40625 C 7.460938 -0.40625 6.578125 -0.75 5.828125 -1.4375 C 5.085938 -2.132812 4.71875 -3.015625 4.71875 -4.078125 C 4.71875 -5.304688 5.117188 -6.53125 5.921875 -7.75 C 6.722656 -8.976562 7.441406 -10.046875 8.078125 -10.953125 C 9.734375 -13.515625 11.535156 -15.96875 13.484375 -18.3125 C 15.429688 -20.664062 17.523438 -22.851562 19.765625 -24.875 C 19.546875 -24.875 19.316406 -24.882812 19.078125 -24.90625 C 18.835938 -24.9375 18.582031 -24.953125 18.3125 -24.953125 C 16.5625 -24.953125 14.816406 -24.78125 13.078125 -24.4375 C 11.347656 -24.09375 9.578125 -23.921875 7.765625 -23.921875 C 6.640625 -23.921875 5.726562 -24.304688 5.03125 -25.078125 C 4.34375 -25.847656 4 -26.71875 4 -27.6875 C 4 -28.476562 4.238281 -29.222656 4.71875 -29.921875 C 5.300781 -30.773438 6.300781 -31.398438 7.71875 -31.796875 C 9.132812 -32.203125 10.785156 -32.457031 12.671875 -32.5625 C 14.566406 -32.664062 16.5 -32.648438 18.46875 -32.515625 C 20.445312 -32.378906 22.316406 -32.175781 24.078125 -31.90625 C 25.835938 -31.644531 27.28125 -31.359375 28.40625 -31.046875 C 29.363281 -30.828125 30.066406 -30.316406 30.515625 -29.515625 C 30.972656 -28.710938 31.203125 -27.859375 31.203125 -26.953125 C 31.203125 -25.410156 30.734375 -24.28125 29.796875 -23.5625 C 28.867188 -22.84375 27.894531 -22.054688 26.875 -21.203125 C 24.75 -19.390625 22.722656 -17.425781 20.796875 -15.3125 C 18.878906 -13.207031 17.117188 -10.984375 15.515625 -8.640625 C 16.210938 -8.585938 17.320312 -8.519531 18.84375 -8.4375 C 20.363281 -8.351562 21.945312 -8.191406 23.59375 -7.953125 C 25.25 -7.710938 26.660156 -7.285156 27.828125 -6.671875 C 29.003906 -6.066406 29.59375 -5.203125 29.59375 -4.078125 C 29.59375 -2.960938 29.191406 -2.003906 28.390625 -1.203125 C 27.597656 -0.398438 26.484375 0 25.046875 0 Z M 25.046875 0 "/></g></g></g><g fill="#ffffff" fill-opacity="1"><g transform="translate(300.22025, 217.400626)"><g><path d="M 12.71875 -0.15625 C 9.25 -0.632812 6.59375 -1.992188 4.75 -4.234375 C 2.914062 -6.472656 2 -8.925781 2 -11.59375 C 2 -13.945312 2.613281 -16.242188 3.84375 -18.484375 C 5.070312 -20.722656 6.40625 -22.664062 7.84375 -24.3125 C 9.226562 -25.914062 10.734375 -27.316406 12.359375 -28.515625 C 13.984375 -29.710938 15.925781 -30.898438 18.1875 -32.078125 C 20.457031 -33.253906 23.222656 -34.585938 26.484375 -36.078125 C 25.953125 -37.941406 25.054688 -39.472656 23.796875 -40.671875 C 22.546875 -41.878906 21.1875 -42.664062 19.71875 -43.03125 C 18.25 -43.40625 16.859375 -43.285156 15.546875 -42.671875 C 14.242188 -42.066406 13.25 -40.859375 12.5625 -39.046875 C 12.289062 -38.347656 11.796875 -37.796875 11.078125 -37.390625 C 10.359375 -36.992188 9.625 -36.796875 8.875 -36.796875 C 7.914062 -36.796875 6.992188 -37.140625 6.109375 -37.828125 C 5.234375 -38.523438 4.796875 -39.460938 4.796875 -40.640625 C 4.796875 -41.703125 5.085938 -42.765625 5.671875 -43.828125 C 6.265625 -44.898438 6.972656 -45.898438 7.796875 -46.828125 C 8.628906 -47.765625 9.390625 -48.472656 10.078125 -48.953125 C 11.304688 -49.859375 12.570312 -50.5 13.875 -50.875 C 15.1875 -51.25 16.507812 -51.4375 17.84375 -51.4375 C 20.34375 -51.4375 22.738281 -50.820312 25.03125 -49.59375 C 27.332031 -48.375 29.332031 -46.734375 31.03125 -44.671875 C 32.738281 -42.617188 33.890625 -40.316406 34.484375 -37.765625 C 34.910156 -35.734375 35.148438 -34.023438 35.203125 -32.640625 C 35.253906 -31.253906 35.28125 -30.023438 35.28125 -28.953125 C 35.28125 -25.546875 35.050781 -22.109375 34.59375 -18.640625 C 34.144531 -15.171875 33.785156 -11.703125 33.515625 -8.234375 C 33.460938 -7.171875 33.328125 -6.160156 33.109375 -5.203125 C 32.898438 -4.242188 32.265625 -3.46875 31.203125 -2.875 C 30.503906 -2.5625 29.96875 -2.429688 29.59375 -2.484375 C 29.226562 -2.535156 28.296875 -2.664062 26.796875 -2.875 C 26.691406 -2.820312 26.554688 -2.753906 26.390625 -2.671875 C 26.234375 -2.597656 26.078125 -2.507812 25.921875 -2.40625 C 23.460938 -1.382812 21.164062 -0.703125 19.03125 -0.359375 C 16.90625 -0.015625 14.800781 0.0507812 12.71875 -0.15625 Z M 15.28125 -8.15625 C 16.5625 -8.15625 17.828125 -8.328125 19.078125 -8.671875 C 20.328125 -9.023438 21.539062 -9.441406 22.71875 -9.921875 C 23.894531 -10.128906 24.5625 -10.257812 24.71875 -10.3125 C 24.875 -10.375 25.164062 -10.347656 25.59375 -10.234375 C 25.8125 -13.117188 26.109375 -15.988281 26.484375 -18.84375 C 26.859375 -21.695312 27.070312 -24.5625 27.125 -27.4375 C 25.144531 -26.476562 23.140625 -25.453125 21.109375 -24.359375 C 19.085938 -23.265625 17.238281 -21.96875 15.5625 -20.46875 C 13.882812 -18.976562 12.484375 -17.195312 11.359375 -15.125 C 10.984375 -14.425781 10.6875 -13.703125 10.46875 -12.953125 C 10.257812 -12.210938 10.179688 -11.441406 10.234375 -10.640625 C 10.554688 -9.628906 11.101562 -9.003906 11.875 -8.765625 C 12.65625 -8.523438 13.789062 -8.320312 15.28125 -8.15625 Z M 15.28125 -8.15625 "/></g></g></g><path stroke-linecap="butt" transform="matrix(0.748881, -0.040955, 0.040955, 0.748881, 185.432191, 222.438473)" fill="none" stroke-linejoin="miter" d="M 2.096619 12.152159 C -0.82495 -1.38174 62.571822 -1.3834 192.286652 12.152377 " stroke="#ff914d" stroke-width="4" stroke-opacity="1" stroke-miterlimit="4"/></svg>