<svg xmlns="http://www.w3.org/2000/svg" width="500" height="300" viewBox="0 0 375 225"><defs><clipPath id="7776c5403d"><path d="M61 61.7h103.457V167H61Zm0 0"/></clipPath><clipPath id="37d3046942"><path d="M46.707 120H101v48.2H46.707Zm0 0"/></clipPath><clipPath id="cdb73278e6"><path d="M0 0h129v114H0z"/></clipPath></defs><g clip-path="url(#7776c5403d)"><path fill="#1e1e1e" d="M112.766 61.73c-28.496 0-51.688 23.43-51.688 52.223 0 .93.75 1.68 1.676 1.68h47.117L86.316 156.93a1.67 1.67 0 0 0 .61 2.277 51.24 51.24 0 0 0 25.832 7c28.496 0 51.687-23.45 51.687-52.262.012-28.785-23.172-52.215-51.68-52.215m-39.11 50.547c.875-21.054 18.082-37.914 39.121-37.914 21.582 0 39.153 17.762 39.153 39.59 0 21.852-17.559 39.629-39.153 39.629a38.6 38.6 0 0 1-18.097-4.5l19.312-33.863.25-.426c.016-.035.035-.063.051-.098q.092-.18.133-.379c0-.007.008-.027.008-.035v-.008a1.7 1.7 0 0 0-.254-1.253 1.68 1.68 0 0 0-1.395-.743Zm39.11 50.578a47.9 47.9 0 0 1-22.688-5.722L93 152.008a42.1 42.1 0 0 0 19.766 4.937c23.441 0 42.507-19.277 42.507-42.98 0-23.68-19.066-42.95-42.507-42.95-22.883 0-41.598 18.36-42.473 41.27h-5.824c.883-26.168 22.21-47.187 48.297-47.187 26.644 0 48.328 21.918 48.328 48.867.008 26.953-21.676 48.89-48.328 48.89m0 0"/></g><g clip-path="url(#37d3046942)"><path fill="#1e1e1e" d="M99.852 123.516a1.7 1.7 0 0 0 .218-.84 1.6 1.6 0 0 0-.226-.84c-.301-.52-.86-.84-1.45-.84h-50.01c-.926 0-1.676.75-1.676 1.68 0 18.57 9.895 35.914 25.813 45.262a1.7 1.7 0 0 0 1.28.175c.43-.113.802-.398 1.024-.785l23.067-40.387Zm-4.352.847-18.133 31.754c-10.754-6.945-17.543-18.863-18.09-31.754Zm-22.734 39.793c-13.579-8.633-22.121-23.625-22.68-39.793h5.828c.547 14.09 7.98 27.125 19.774 34.668Zm0 0"/></g><path fill="#1e1e1e" d="M133.414 117.172c0 4.637 3.746 8.418 8.344 8.418 4.601 0 8.344-3.774 8.344-8.418 0-4.621-3.743-8.387-8.344-8.387-4.61 0-8.344 3.766-8.344 8.387m8.344-5.027c2.746 0 4.988 2.253 4.988 5.015 0 2.785-2.234 5.055-4.988 5.055-2.746 0-4.988-2.27-4.988-5.055 0-2.762 2.234-5.015 4.988-5.015m-24.676-18.36c4.602 0 8.344-3.773 8.344-8.41 0-4.64-3.742-8.414-8.344-8.414-4.598 0-8.34 3.773-8.34 8.414.008 4.637 3.742 8.41 8.34 8.41m0-13.472c2.746 0 4.988 2.269 4.988 5.05 0 2.785-2.23 5.055-4.988 5.055-2.742 0-4.984-2.27-4.984-5.055.007-2.781 2.242-5.05 4.984-5.05M94.45 85.922c-4.602 0-8.345 3.773-8.345 8.41s3.743 8.41 8.344 8.41c4.582 0 8.305-3.773 8.305-8.41s-3.723-8.41-8.305-8.41m0 13.473c-2.747 0-4.99-2.27-4.99-5.055 0-2.781 2.235-5.05 4.99-5.05 2.726 0 4.952 2.269 4.952 5.05 0 2.785-2.226 5.055-4.953 5.055M84.059 135.89c3.054 0 5.453-2.41 5.453-5.492a5.46 5.46 0 0 0-5.453-5.46c-2.985 0-5.422 2.445-5.422 5.46 0 3.028 2.43 5.493 5.422 5.493m0-7.597c1.171 0 2.09.922 2.09 2.105 0 1.192-.919 2.13-2.09 2.13-1.157 0-2.059-.938-2.059-2.13-.008-1.183.902-2.105 2.059-2.105m34.179-24.446c0-3.032-2.445-5.496-5.453-5.496-3.012 0-5.457 2.464-5.457 5.496 0 3.03 2.445 5.496 5.457 5.496 3.008 0 5.453-2.465 5.453-5.496m-7.547 0c0-1.176.938-2.137 2.094-2.137s2.09.953 2.09 2.137c0 1.175-.934 2.129-2.09 2.129-1.148.007-2.094-.954-2.094-2.13M111 134.3c-3.008 0-5.453 2.466-5.453 5.497s2.445 5.496 5.453 5.496c3.012 0 5.457-2.465 5.457-5.496S114.012 134.3 111 134.3m0 7.626c-1.156 0-2.09-.953-2.09-2.137 0-1.176.934-2.129 2.09-2.129s2.094.953 2.094 2.13c0 1.183-.938 2.136-2.094 2.136m0 0"/><path fill="#1e1e1e" d="M81.816 140.813c0-4.301-3.453-7.793-7.699-7.793s-7.699 3.5-7.699 7.792c0 4.278 3.453 7.766 7.7 7.766 4.245 0 7.698-3.48 7.698-7.766m-12.035 0c0-2.446 1.942-4.434 4.336-4.434 2.39 0 4.336 1.988 4.336 4.434 0 2.386-1.988 4.402-4.336 4.402-2.394 0-4.336-1.973-4.336-4.403m64.844-34.827c3.012 0 5.457-2.464 5.457-5.496 0-3.027-2.445-5.492-5.457-5.492s-5.457 2.465-5.457 5.492c0 3.032 2.445 5.496 5.457 5.496m0-7.632c1.156 0 2.094.953 2.094 2.128s-.938 2.141-2.094 2.141-2.094-.957-2.094-2.14c-.008-1.165.938-2.13 2.094-2.13m-11.211 18.289c-4.602 0-8.344 3.766-8.344 8.383 0 4.641 3.743 8.415 8.344 8.415 4.598 0 8.344-3.774 8.344-8.415 0-4.628-3.746-8.382-8.344-8.382m0 13.438c-2.746 0-4.988-2.27-4.988-5.055 0-2.761 2.234-5.015 4.988-5.015s4.988 2.254 4.988 5.015c-.011 2.786-2.242 5.055-4.988 5.055m0 0"/><g clip-path="url(#cdb73278e6)" transform="translate(186 58)"><path d="M13.052 32.373q8.044-.122 12.343 2.047 4.313 2.176 4.313 6.453 0 2.128-1.453 3.922-1.442 1.8-3.703 3.219a33 33 0 0 1-4.797 2.469q-2.55 1.064-4.875 1.797c-1.555.48-2.828.824-3.828 1.03a64 64 0 0 1-.329 5.032q-.25 2.52-.437 4.969a58 58 0 0 0-.031 3.453q.03 1.894.031 2.89 0 1.455-.938 2.141-.937.69-2.015.688-1.687 0-2.485-1.188c-.523-.8-.78-1.914-.78-3.344 0-.5.038-1.3.124-2.406a1608 1608 0 0 1 .594-7.765q.154-1.952.219-3.282.123-2.436.093-5.359-.034-2.937-.156-5.703-.001-.749-.125-2.125-.128-1.389-.25-2.766a107 107 0 0 0-.219-2.203q-.093-.809-.093-.375.06-1.764 1.187-2.484 1.139-.718 3.11-.907c1.32-.132 2.82-.203 4.5-.203m-8.797 3.594v.063zm6.797 11.313q.935-.31 2.843-.907a43 43 0 0 0 3.97-1.484q2.043-.873 3.483-1.875 1.455-1.014 1.454-2.016 0-.89-.797-1.265c-.524-.25-1.125-.426-1.813-.532q-1.03-.152-1.922-.28a18.3 18.3 0 0 0-4.156-.5 44 44 0 0 0-3.516.124 85 85 0 0 1 .297 4.328q.094 2.204.157 4.407m30.859-9.813c-.5 0-1.008-.125-1.516-.375q-.816-.5-1.156-1.156a2.9 2.9 0 0 1-.344-1.36q-.001-1.249.907-2.28c.601-.696 1.328-1.048 2.171-1.048q.75 0 1.5.375.827.439 1.172 1.141.342.69.344 1.375 0 1.266-.922 2.297-.908 1.03-2.156 1.031m-1.453 34.828a2.93 2.93 0 0 1-2.14-.875q-.564-.574-.75-1.453a8.7 8.7 0 0 1-.188-1.828q0-.936.093-1.844.094-.92.094-1.547-.002-4.389.031-9.547.03-5.156.094-9.562.06-1.373 1.063-2.219c.676-.57 1.43-.86 2.265-.86q1.264.002 2.141.876.562.58.75 1.453.201.879.203 1.828 0 .937-.094 1.828a15 15 0 0 0-.093 1.563q-.066 4.393-.032 9.547a256 256 0 0 1-.109 9.562q-.065 1.378-1.063 2.234-1 .844-2.265.844m25.772 0a10 10 0 0 1-1.89-.187 15 15 0 0 0-1.75-.25 41 41 0 0 1-2.625-.407 26 26 0 0 0-2.922-.375q-1.378-.092-2.187.407-.815.502-1.64.5-1.19 0-2.08-.813-.876-.825-.874-2.078 0-1.452.937-2.89a89 89 0 0 1 1.704-2.516 61 61 0 0 1 4.25-5.781 50 50 0 0 1 4.937-5.157c-.168 0-.351-.007-.547-.03a6 6 0 0 0-.594-.032 21 21 0 0 0-4.109.406 21.3 21.3 0 0 1-4.187.406q-1.313.001-2.141-.906-.814-.92-.813-2.047c0-.625.188-1.21.563-1.765.469-.664 1.254-1.157 2.36-1.47q1.67-.466 3.89-.593a38 38 0 0 1 4.562.031q2.327.158 4.407.47 2.076.314 3.39.687 1.138.253 1.672 1.203.53.938.531 2c0 1.218-.37 2.117-1.109 2.687a68 68 0 0 0-2.281 1.844 52 52 0 0 0-4.781 4.625 47.4 47.4 0 0 0-4.157 5.25q.827.064 2.61.156 1.794.094 3.734.375 1.95.284 3.344 1 1.39.721 1.39 2.047-.002 1.314-.953 2.266-.939.937-2.64.937m26.085 0a10 10 0 0 1-1.89-.187 15 15 0 0 0-1.75-.25 41 41 0 0 1-2.626-.407 26 26 0 0 0-2.922-.375q-1.378-.092-2.187.407-.815.502-1.64.5-1.19 0-2.079-.813-.877-.825-.875-2.078 0-1.452.938-2.89a89 89 0 0 1 1.703-2.516 61 61 0 0 1 4.25-5.781 50 50 0 0 1 4.937-5.157c-.168 0-.351-.007-.547-.03a6 6 0 0 0-.593-.032 21 21 0 0 0-4.11.406 21.3 21.3 0 0 1-4.187.406q-1.314.001-2.141-.906-.813-.92-.812-2.047c0-.625.187-1.21.562-1.765.469-.664 1.254-1.157 2.36-1.47q1.67-.466 3.89-.593a38 38 0 0 1 4.563.031q2.326.158 4.406.47 2.076.314 3.39.687 1.138.253 1.672 1.203.53.938.532 2c0 1.218-.372 2.117-1.11 2.687a68 68 0 0 0-2.281 1.844 52 52 0 0 0-4.781 4.625 47.4 47.4 0 0 0-4.157 5.25q.827.064 2.61.156 1.793.094 3.734.375 1.95.284 3.344 1 1.39.721 1.39 2.047-.002 1.314-.953 2.266-.939.937-2.64.937m16.413-.125q-4.096-.561-6.266-3.203-2.156-2.638-2.156-5.781-.002-2.765 1.438-5.406 1.452-2.638 3.14-4.594a22 22 0 0 1 3.547-3.297q1.922-1.419 4.594-2.797 2.672-1.39 6.516-3.14-.644-2.204-2.125-3.61-1.47-1.418-3.204-1.86-1.72-.45-3.265.282-1.536.72-2.344 2.86-.329.813-1.172 1.28-.844.47-1.719.47-1.143 0-2.187-.813-1.031-.81-1.031-2.203c0-.832.226-1.664.687-2.5a13.2 13.2 0 0 1 1.672-2.36q.983-1.108 1.797-1.672 1.436-1.06 2.984-1.5a11 11 0 0 1 3.11-.453q2.95 0 5.656 1.453 2.701 1.441 4.719 3.86a12.9 12.9 0 0 1 2.703 5.437q.498 2.391.562 4.032a80 80 0 0 1 .063 2.89c0 2.68-.18 5.383-.531 8.11a152 152 0 0 0-.844 8.171 13.7 13.7 0 0 1-.328 2.391q-.252 1.126-1.5 1.813-.815.376-1.266.312-.44-.06-2.187-.312l-.313.156a5 5 0 0 0-.39.219q-2.894 1.206-5.407 1.609c-1.668.273-3.32.32-4.953.156m2-6.281q1.513.002 2.984-.406 1.483-.423 2.875-.985c.914-.164 1.438-.27 1.563-.312.125-.04.351-.02.687.062q.247-3.386.688-6.75.45-3.374.516-6.765c-1.555.761-3.125 1.57-4.72 2.422a22.7 22.7 0 0 0-4.374 3.046 15.6 15.6 0 0 0-3.297 4.22 8 8 0 0 0-.688 1.702 5.2 5.2 0 0 0-.187 1.813q.374 1.19 1.281 1.484.92.282 2.672.469m0 0"/></g><path fill="none" stroke="#ff914d" stroke-width="2.25" d="M196.156 141.336c-2.156-7.871 35.153-9.91 111.918-6.117"/></svg>