<svg xmlns="http://www.w3.org/2000/svg" xmlns:xlink="http://www.w3.org/1999/xlink" width="500" zoomAndPan="magnify" viewBox="0 0 375 149.999998" height="200" preserveAspectRatio="xMidYMid meet" version="1.0"><defs><g/><clipPath id="8daadf92e8"><path d="M 68 32.867188 L 153.789062 32.867188 L 153.789062 119 L 68 119 Z M 68 32.867188 " clip-rule="nonzero"/></clipPath><clipPath id="1c1c92dd6d"><path d="M 57.039062 81 L 101 81 L 101 120.617188 L 57.039062 120.617188 Z M 57.039062 81 " clip-rule="nonzero"/></clipPath><clipPath id="77093696f0"><rect x="0" width="106" y="0" height="95"/></clipPath></defs><g clip-path="url(#8daadf92e8)"><path fill="#ffffff" d="M 111.375 32.898438 C 87.9375 32.898438 68.859375 52.15625 68.859375 75.820312 C 68.859375 76.582031 69.476562 77.199219 70.238281 77.199219 L 108.996094 77.199219 L 89.621094 111.140625 C 89.242188 111.800781 89.46875 112.636719 90.121094 113.015625 C 96.5625 116.777344 103.910156 118.765625 111.371094 118.765625 C 134.808594 118.765625 153.886719 99.496094 153.886719 75.8125 C 153.894531 52.15625 134.824219 32.898438 111.375 32.898438 Z M 79.207031 74.441406 C 79.925781 57.136719 94.078125 43.28125 111.382812 43.28125 C 129.136719 43.28125 143.589844 57.878906 143.589844 75.820312 C 143.589844 93.78125 129.144531 108.390625 111.382812 108.390625 C 106.191406 108.390625 101.074219 107.117188 96.496094 104.695312 L 112.386719 76.859375 L 112.589844 76.511719 C 112.605469 76.480469 112.617188 76.460938 112.632812 76.429688 C 112.683594 76.328125 112.71875 76.226562 112.742188 76.117188 C 112.742188 76.113281 112.75 76.097656 112.75 76.089844 C 112.75 76.089844 112.75 76.082031 112.75 76.082031 C 112.808594 75.761719 112.757812 75.421875 112.589844 75.132812 C 112.574219 75.101562 112.558594 75.082031 112.539062 75.050781 C 112.285156 74.675781 111.855469 74.441406 111.390625 74.441406 Z M 111.375 116.015625 C 104.863281 116.015625 98.4375 114.386719 92.714844 111.308594 L 95.117188 107.097656 C 100.113281 109.753906 105.707031 111.15625 111.375 111.15625 C 130.65625 111.15625 146.339844 95.3125 146.339844 75.828125 C 146.339844 56.367188 130.65625 40.53125 111.375 40.53125 C 92.554688 40.53125 77.160156 55.621094 76.441406 74.449219 L 71.648438 74.449219 C 72.375 52.941406 89.917969 35.664062 111.375 35.664062 C 133.292969 35.664062 151.125 53.679688 151.125 75.828125 C 151.132812 97.984375 133.300781 116.015625 111.375 116.015625 Z M 111.375 116.015625 " fill-opacity="1" fill-rule="nonzero"/></g><g clip-path="url(#1c1c92dd6d)"><path fill="#ffffff" d="M 100.753906 83.679688 C 100.875 83.46875 100.933594 83.226562 100.933594 82.988281 C 100.933594 82.84375 100.914062 82.691406 100.863281 82.546875 C 100.832031 82.457031 100.796875 82.378906 100.746094 82.296875 C 100.5 81.871094 100.042969 81.609375 99.554688 81.609375 L 58.417969 81.609375 C 57.65625 81.609375 57.039062 82.226562 57.039062 82.988281 C 57.039062 98.253906 65.179688 112.507812 78.269531 120.191406 C 78.480469 120.3125 78.726562 120.378906 78.96875 120.378906 C 79.085938 120.378906 79.207031 120.363281 79.324219 120.335938 C 79.679688 120.242188 79.984375 120.007812 80.167969 119.6875 L 99.140625 86.496094 Z M 97.171875 84.375 L 82.257812 110.472656 C 73.414062 104.765625 67.828125 94.96875 67.378906 84.375 Z M 78.472656 117.082031 C 67.304688 109.988281 60.277344 97.664062 59.820312 84.375 L 64.613281 84.375 C 65.0625 95.957031 71.175781 106.667969 80.878906 112.871094 Z M 78.472656 117.082031 " fill-opacity="1" fill-rule="nonzero"/></g><path fill="#ffffff" d="M 128.363281 78.464844 C 128.363281 82.277344 131.441406 85.386719 135.222656 85.386719 C 139.007812 85.386719 142.085938 82.285156 142.085938 78.464844 C 142.085938 74.667969 139.007812 71.574219 135.222656 71.574219 C 131.433594 71.574219 128.363281 74.667969 128.363281 78.464844 Z M 135.222656 74.332031 C 137.480469 74.332031 139.328125 76.183594 139.328125 78.457031 C 139.328125 80.746094 137.488281 82.609375 135.222656 82.609375 C 132.964844 82.609375 131.121094 80.746094 131.121094 78.457031 C 131.121094 76.183594 132.957031 74.332031 135.222656 74.332031 Z M 135.222656 74.332031 " fill-opacity="1" fill-rule="nonzero"/><path fill="#ffffff" d="M 114.925781 59.242188 C 118.710938 59.242188 121.789062 56.140625 121.789062 52.328125 C 121.789062 48.519531 118.710938 45.417969 114.925781 45.417969 C 111.144531 45.417969 108.066406 48.519531 108.066406 52.328125 C 108.074219 56.140625 111.144531 59.242188 114.925781 59.242188 Z M 114.925781 48.167969 C 117.1875 48.167969 119.03125 50.035156 119.03125 52.324219 C 119.03125 54.609375 117.191406 56.476562 114.925781 56.476562 C 112.667969 56.476562 110.824219 54.609375 110.824219 52.324219 C 110.832031 50.035156 112.667969 48.167969 114.925781 48.167969 Z M 114.925781 48.167969 " fill-opacity="1" fill-rule="nonzero"/><path fill="#ffffff" d="M 96.308594 52.78125 C 92.527344 52.78125 89.445312 55.882812 89.445312 59.691406 C 89.445312 63.503906 92.527344 66.605469 96.308594 66.605469 C 100.078125 66.605469 103.140625 63.503906 103.140625 59.691406 C 103.140625 55.882812 100.078125 52.78125 96.308594 52.78125 Z M 96.308594 63.855469 C 94.050781 63.855469 92.207031 61.988281 92.207031 59.699219 C 92.207031 57.414062 94.042969 55.546875 96.308594 55.546875 C 98.550781 55.546875 100.382812 57.414062 100.382812 59.699219 C 100.382812 61.988281 98.550781 63.855469 96.308594 63.855469 Z M 96.308594 63.855469 " fill-opacity="1" fill-rule="nonzero"/><path fill="#ffffff" d="M 87.761719 93.851562 C 90.273438 93.851562 92.25 91.871094 92.25 89.335938 C 92.25 86.859375 90.238281 84.847656 87.761719 84.847656 C 85.308594 84.847656 83.304688 86.859375 83.304688 89.335938 C 83.304688 91.824219 85.300781 93.851562 87.761719 93.851562 Z M 87.761719 87.605469 C 88.726562 87.605469 89.484375 88.363281 89.484375 89.335938 C 89.484375 90.316406 88.726562 91.085938 87.761719 91.085938 C 86.808594 91.085938 86.070312 90.316406 86.070312 89.335938 C 86.0625 88.363281 86.808594 87.605469 87.761719 87.605469 Z M 87.761719 87.605469 " fill-opacity="1" fill-rule="nonzero"/><path fill="#ffffff" d="M 115.878906 67.515625 C 115.878906 65.023438 113.867188 62.996094 111.390625 62.996094 C 108.914062 62.996094 106.902344 65.023438 106.902344 67.515625 C 106.902344 70.003906 108.914062 72.03125 111.390625 72.03125 C 113.867188 72.03125 115.878906 70.003906 115.878906 67.515625 Z M 109.671875 67.515625 C 109.671875 66.546875 110.441406 65.757812 111.390625 65.757812 C 112.34375 65.757812 113.113281 66.539062 113.113281 67.515625 C 113.113281 68.480469 112.34375 69.265625 111.390625 69.265625 C 110.445312 69.269531 109.671875 68.480469 109.671875 67.515625 Z M 109.671875 67.515625 " fill-opacity="1" fill-rule="nonzero"/><path fill="#ffffff" d="M 109.925781 92.542969 C 107.449219 92.542969 105.4375 94.570312 105.4375 97.0625 C 105.4375 99.550781 107.449219 101.578125 109.925781 101.578125 C 112.402344 101.578125 114.410156 99.550781 114.410156 97.0625 C 114.410156 94.570312 112.402344 92.542969 109.925781 92.542969 Z M 109.925781 98.8125 C 108.972656 98.8125 108.203125 98.027344 108.203125 97.054688 C 108.203125 96.089844 108.972656 95.304688 109.925781 95.304688 C 110.875 95.304688 111.644531 96.089844 111.644531 97.054688 C 111.644531 98.027344 110.875 98.8125 109.925781 98.8125 Z M 109.925781 98.8125 " fill-opacity="1" fill-rule="nonzero"/><path fill="#ffffff" d="M 85.917969 97.898438 C 85.917969 94.359375 83.078125 91.492188 79.585938 91.492188 C 76.09375 91.492188 73.253906 94.367188 73.253906 97.898438 C 73.253906 101.410156 76.09375 104.28125 79.585938 104.28125 C 83.078125 104.28125 85.917969 101.417969 85.917969 97.898438 Z M 76.019531 97.898438 C 76.019531 95.886719 77.617188 94.25 79.585938 94.25 C 81.554688 94.25 83.152344 95.886719 83.152344 97.898438 C 83.152344 99.855469 81.515625 101.511719 79.585938 101.511719 C 77.617188 101.511719 76.019531 99.894531 76.019531 97.898438 Z M 76.019531 97.898438 " fill-opacity="1" fill-rule="nonzero"/><path fill="#ffffff" d="M 129.355469 69.269531 C 131.832031 69.269531 133.84375 67.246094 133.84375 64.753906 C 133.84375 62.265625 131.832031 60.238281 129.355469 60.238281 C 126.878906 60.238281 124.867188 62.265625 124.867188 64.753906 C 124.867188 67.246094 126.878906 69.269531 129.355469 69.269531 Z M 129.355469 62.996094 C 130.308594 62.996094 131.078125 63.78125 131.078125 64.746094 C 131.078125 65.714844 130.308594 66.503906 129.355469 66.503906 C 128.40625 66.503906 127.636719 65.71875 127.636719 64.746094 C 127.628906 63.789062 128.40625 62.996094 129.355469 62.996094 Z M 129.355469 62.996094 " fill-opacity="1" fill-rule="nonzero"/><path fill="#ffffff" d="M 120.132812 78.027344 C 116.351562 78.027344 113.273438 81.121094 113.273438 84.921875 C 113.273438 88.734375 116.351562 91.832031 120.132812 91.832031 C 123.917969 91.832031 126.996094 88.734375 126.996094 84.921875 C 126.996094 81.113281 123.917969 78.027344 120.132812 78.027344 Z M 120.132812 89.074219 C 117.875 89.074219 116.03125 87.207031 116.03125 84.921875 C 116.03125 82.648438 117.867188 80.796875 120.132812 80.796875 C 122.398438 80.796875 124.238281 82.648438 124.238281 84.921875 C 124.230469 87.207031 122.390625 89.074219 120.132812 89.074219 Z M 120.132812 89.074219 " fill-opacity="1" fill-rule="nonzero"/><g transform="matrix(1, 0, 0, 1, 178, 29)"><g clip-path="url(#77093696f0)"><g fill="#ffffff" fill-opacity="1"><g transform="translate(0.595281, 59.989923)"><g><path d="M 9.8125 -32.796875 C 14.21875 -32.867188 17.597656 -32.3125 19.953125 -31.125 C 22.316406 -29.9375 23.5 -28.171875 23.5 -25.828125 C 23.5 -24.660156 23.101562 -23.582031 22.3125 -22.59375 C 21.519531 -21.613281 20.503906 -20.734375 19.265625 -19.953125 C 18.023438 -19.179688 16.707031 -18.503906 15.3125 -17.921875 C 13.914062 -17.335938 12.582031 -16.847656 11.3125 -16.453125 C 10.039062 -16.054688 8.988281 -15.769531 8.15625 -15.59375 C 8.125 -14.21875 8.039062 -12.84375 7.90625 -11.46875 C 7.769531 -10.09375 7.648438 -8.734375 7.546875 -7.390625 C 7.503906 -6.523438 7.492188 -5.578125 7.515625 -4.546875 C 7.535156 -3.515625 7.546875 -2.722656 7.546875 -2.171875 C 7.546875 -1.378906 7.285156 -0.789062 6.765625 -0.40625 C 6.242188 -0.03125 5.691406 0.15625 5.109375 0.15625 C 4.179688 0.15625 3.5 -0.171875 3.0625 -0.828125 C 2.632812 -1.484375 2.421875 -2.394531 2.421875 -3.5625 C 2.421875 -3.976562 2.457031 -4.640625 2.53125 -5.546875 C 2.601562 -6.460938 2.679688 -7.488281 2.765625 -8.625 C 2.847656 -9.757812 2.929688 -10.859375 3.015625 -11.921875 C 3.109375 -12.992188 3.171875 -13.894531 3.203125 -14.625 C 3.273438 -15.96875 3.300781 -17.4375 3.28125 -19.03125 C 3.257812 -20.632812 3.21875 -22.191406 3.15625 -23.703125 C 3.15625 -24.117188 3.117188 -24.707031 3.046875 -25.46875 C 2.972656 -26.226562 2.898438 -26.984375 2.828125 -27.734375 C 2.765625 -28.492188 2.707031 -29.097656 2.65625 -29.546875 C 2.601562 -29.992188 2.578125 -30.097656 2.578125 -29.859375 C 2.617188 -30.816406 2.945312 -31.492188 3.5625 -31.890625 C 4.1875 -32.285156 5.039062 -32.535156 6.125 -32.640625 C 7.207031 -32.742188 8.4375 -32.796875 9.8125 -32.796875 Z M 2.578125 -29.859375 Z M 2.578125 -29.859375 Z M 2.578125 -29.859375 L 2.578125 -29.8125 C 2.578125 -29.8125 2.578125 -29.828125 2.578125 -29.859375 Z M 8.15625 -20.5625 C 8.675781 -20.726562 9.460938 -20.972656 10.515625 -21.296875 C 11.566406 -21.628906 12.648438 -22.035156 13.765625 -22.515625 C 14.878906 -23.003906 15.832031 -23.519531 16.625 -24.0625 C 17.425781 -24.613281 17.828125 -25.164062 17.828125 -25.71875 C 17.828125 -26.207031 17.609375 -26.550781 17.171875 -26.75 C 16.742188 -26.957031 16.242188 -27.101562 15.671875 -27.1875 C 15.109375 -27.28125 14.585938 -27.359375 14.109375 -27.421875 C 12.929688 -27.703125 11.789062 -27.84375 10.6875 -27.84375 C 9.59375 -27.84375 8.628906 -27.804688 7.796875 -27.734375 C 7.898438 -26.566406 7.976562 -25.378906 8.03125 -24.171875 C 8.082031 -22.960938 8.125 -21.757812 8.15625 -20.5625 Z M 8.15625 -20.5625 "/></g></g></g><g fill="#ffffff" fill-opacity="1"><g transform="translate(27.818262, 59.989923)"><g><path d="M 6.296875 -28.625 C 5.890625 -28.625 5.476562 -28.722656 5.0625 -28.921875 C 4.613281 -29.203125 4.296875 -29.519531 4.109375 -29.875 C 3.921875 -30.238281 3.828125 -30.613281 3.828125 -31 C 3.828125 -31.6875 4.078125 -32.3125 4.578125 -32.875 C 5.078125 -33.445312 5.671875 -33.734375 6.359375 -33.734375 C 6.765625 -33.734375 7.175781 -33.628906 7.59375 -33.421875 C 8.039062 -33.179688 8.359375 -32.867188 8.546875 -32.484375 C 8.734375 -32.109375 8.828125 -31.734375 8.828125 -31.359375 C 8.828125 -30.671875 8.578125 -30.039062 8.078125 -29.46875 C 7.578125 -28.90625 6.984375 -28.625 6.296875 -28.625 Z M 5.109375 0 C 4.421875 0 3.835938 -0.238281 3.359375 -0.71875 C 3.046875 -1.03125 2.835938 -1.425781 2.734375 -1.90625 C 2.628906 -2.394531 2.578125 -2.894531 2.578125 -3.40625 C 2.578125 -3.925781 2.601562 -4.4375 2.65625 -4.9375 C 2.707031 -5.4375 2.734375 -5.859375 2.734375 -6.203125 C 2.734375 -8.609375 2.742188 -11.222656 2.765625 -14.046875 C 2.785156 -16.867188 2.8125 -19.488281 2.84375 -21.90625 C 2.875 -22.65625 3.164062 -23.265625 3.71875 -23.734375 C 4.269531 -24.203125 4.890625 -24.4375 5.578125 -24.4375 C 6.265625 -24.4375 6.847656 -24.191406 7.328125 -23.703125 C 7.640625 -23.398438 7.847656 -23.003906 7.953125 -22.515625 C 8.054688 -22.035156 8.109375 -21.539062 8.109375 -21.03125 C 8.109375 -20.507812 8.082031 -20.003906 8.03125 -19.515625 C 7.976562 -19.035156 7.953125 -18.609375 7.953125 -18.234375 C 7.921875 -15.828125 7.910156 -13.207031 7.921875 -10.375 C 7.941406 -7.550781 7.921875 -4.9375 7.859375 -2.53125 C 7.816406 -1.769531 7.519531 -1.15625 6.96875 -0.6875 C 6.414062 -0.226562 5.796875 0 5.109375 0 Z M 5.109375 0 "/></g></g></g><g fill="#ffffff" fill-opacity="1"><g transform="translate(37.942904, 59.989923)"><g><path d="M 16.171875 0 C 15.648438 0 15.128906 -0.0507812 14.609375 -0.15625 C 14.097656 -0.257812 13.617188 -0.328125 13.171875 -0.359375 C 12.585938 -0.429688 11.875 -0.546875 11.03125 -0.703125 C 10.1875 -0.859375 9.382812 -0.957031 8.625 -1 C 7.863281 -1.050781 7.257812 -0.941406 6.8125 -0.671875 C 6.363281 -0.398438 5.914062 -0.265625 5.46875 -0.265625 C 4.820312 -0.265625 4.253906 -0.484375 3.765625 -0.921875 C 3.285156 -1.367188 3.046875 -1.941406 3.046875 -2.640625 C 3.046875 -3.429688 3.300781 -4.222656 3.8125 -5.015625 C 4.332031 -5.804688 4.800781 -6.492188 5.21875 -7.078125 C 6.28125 -8.734375 7.441406 -10.316406 8.703125 -11.828125 C 9.960938 -13.347656 11.316406 -14.757812 12.765625 -16.0625 C 12.617188 -16.0625 12.46875 -16.066406 12.3125 -16.078125 C 12.164062 -16.097656 12.003906 -16.109375 11.828125 -16.109375 C 10.691406 -16.109375 9.5625 -15.992188 8.4375 -15.765625 C 7.320312 -15.546875 6.179688 -15.4375 5.015625 -15.4375 C 4.285156 -15.4375 3.695312 -15.6875 3.25 -16.1875 C 2.800781 -16.6875 2.578125 -17.25 2.578125 -17.875 C 2.578125 -18.382812 2.734375 -18.863281 3.046875 -19.3125 C 3.421875 -19.863281 4.066406 -20.269531 4.984375 -20.53125 C 5.898438 -20.789062 6.96875 -20.953125 8.1875 -21.015625 C 9.40625 -21.085938 10.648438 -21.082031 11.921875 -21 C 13.203125 -20.914062 14.410156 -20.785156 15.546875 -20.609375 C 16.679688 -20.441406 17.613281 -20.253906 18.34375 -20.046875 C 18.957031 -19.910156 19.410156 -19.582031 19.703125 -19.0625 C 19.992188 -18.539062 20.140625 -17.988281 20.140625 -17.40625 C 20.140625 -16.40625 19.835938 -15.671875 19.234375 -15.203125 C 18.640625 -14.742188 18.015625 -14.238281 17.359375 -13.6875 C 15.984375 -12.519531 14.675781 -11.253906 13.4375 -9.890625 C 12.195312 -8.535156 11.054688 -7.097656 10.015625 -5.578125 C 10.460938 -5.546875 11.175781 -5.503906 12.15625 -5.453125 C 13.144531 -5.398438 14.171875 -5.296875 15.234375 -5.140625 C 16.304688 -4.984375 17.21875 -4.707031 17.96875 -4.3125 C 18.726562 -3.914062 19.109375 -3.359375 19.109375 -2.640625 C 19.109375 -1.910156 18.847656 -1.285156 18.328125 -0.765625 C 17.816406 -0.253906 17.097656 0 16.171875 0 Z M 16.171875 0 "/></g></g></g><g fill="#ffffff" fill-opacity="1"><g transform="translate(59.380291, 59.989923)"><g><path d="M 16.171875 0 C 15.648438 0 15.128906 -0.0507812 14.609375 -0.15625 C 14.097656 -0.257812 13.617188 -0.328125 13.171875 -0.359375 C 12.585938 -0.429688 11.875 -0.546875 11.03125 -0.703125 C 10.1875 -0.859375 9.382812 -0.957031 8.625 -1 C 7.863281 -1.050781 7.257812 -0.941406 6.8125 -0.671875 C 6.363281 -0.398438 5.914062 -0.265625 5.46875 -0.265625 C 4.820312 -0.265625 4.253906 -0.484375 3.765625 -0.921875 C 3.285156 -1.367188 3.046875 -1.941406 3.046875 -2.640625 C 3.046875 -3.429688 3.300781 -4.222656 3.8125 -5.015625 C 4.332031 -5.804688 4.800781 -6.492188 5.21875 -7.078125 C 6.28125 -8.734375 7.441406 -10.316406 8.703125 -11.828125 C 9.960938 -13.347656 11.316406 -14.757812 12.765625 -16.0625 C 12.617188 -16.0625 12.46875 -16.066406 12.3125 -16.078125 C 12.164062 -16.097656 12.003906 -16.109375 11.828125 -16.109375 C 10.691406 -16.109375 9.5625 -15.992188 8.4375 -15.765625 C 7.320312 -15.546875 6.179688 -15.4375 5.015625 -15.4375 C 4.285156 -15.4375 3.695312 -15.6875 3.25 -16.1875 C 2.800781 -16.6875 2.578125 -17.25 2.578125 -17.875 C 2.578125 -18.382812 2.734375 -18.863281 3.046875 -19.3125 C 3.421875 -19.863281 4.066406 -20.269531 4.984375 -20.53125 C 5.898438 -20.789062 6.96875 -20.953125 8.1875 -21.015625 C 9.40625 -21.085938 10.648438 -21.082031 11.921875 -21 C 13.203125 -20.914062 14.410156 -20.785156 15.546875 -20.609375 C 16.679688 -20.441406 17.613281 -20.253906 18.34375 -20.046875 C 18.957031 -19.910156 19.410156 -19.582031 19.703125 -19.0625 C 19.992188 -18.539062 20.140625 -17.988281 20.140625 -17.40625 C 20.140625 -16.40625 19.835938 -15.671875 19.234375 -15.203125 C 18.640625 -14.742188 18.015625 -14.238281 17.359375 -13.6875 C 15.984375 -12.519531 14.675781 -11.253906 13.4375 -9.890625 C 12.195312 -8.535156 11.054688 -7.097656 10.015625 -5.578125 C 10.460938 -5.546875 11.175781 -5.503906 12.15625 -5.453125 C 13.144531 -5.398438 14.171875 -5.296875 15.234375 -5.140625 C 16.304688 -4.984375 17.21875 -4.707031 17.96875 -4.3125 C 18.726562 -3.914062 19.109375 -3.359375 19.109375 -2.640625 C 19.109375 -1.910156 18.847656 -1.285156 18.328125 -0.765625 C 17.816406 -0.253906 17.097656 0 16.171875 0 Z M 16.171875 0 "/></g></g></g><g fill="#ffffff" fill-opacity="1"><g transform="translate(80.817678, 59.989923)"><g><path d="M 8.21875 -0.109375 C 5.976562 -0.410156 4.265625 -1.285156 3.078125 -2.734375 C 1.890625 -4.179688 1.296875 -5.765625 1.296875 -7.484375 C 1.296875 -9.003906 1.691406 -10.488281 2.484375 -11.9375 C 3.273438 -13.382812 4.132812 -14.640625 5.0625 -15.703125 C 5.957031 -16.734375 6.929688 -17.632812 7.984375 -18.40625 C 9.035156 -19.1875 10.289062 -19.953125 11.75 -20.703125 C 13.21875 -21.460938 15 -22.328125 17.09375 -23.296875 C 16.75 -24.503906 16.171875 -25.492188 15.359375 -26.265625 C 14.554688 -27.035156 13.679688 -27.539062 12.734375 -27.78125 C 11.785156 -28.03125 10.890625 -27.957031 10.046875 -27.5625 C 9.203125 -27.164062 8.554688 -26.378906 8.109375 -25.203125 C 7.941406 -24.753906 7.625 -24.398438 7.15625 -24.140625 C 6.6875 -23.890625 6.210938 -23.765625 5.734375 -23.765625 C 5.109375 -23.765625 4.507812 -23.988281 3.9375 -24.4375 C 3.375 -24.882812 3.09375 -25.484375 3.09375 -26.234375 C 3.09375 -26.929688 3.28125 -27.625 3.65625 -28.3125 C 4.039062 -29 4.5 -29.644531 5.03125 -30.25 C 5.570312 -30.851562 6.066406 -31.304688 6.515625 -31.609375 C 7.304688 -32.191406 8.125 -32.601562 8.96875 -32.84375 C 9.8125 -33.09375 10.660156 -33.21875 11.515625 -33.21875 C 13.140625 -33.21875 14.691406 -32.820312 16.171875 -32.03125 C 17.648438 -31.238281 18.941406 -30.175781 20.046875 -28.84375 C 21.148438 -27.519531 21.890625 -26.03125 22.265625 -24.375 C 22.535156 -23.070312 22.6875 -21.972656 22.71875 -21.078125 C 22.757812 -20.179688 22.78125 -19.390625 22.78125 -18.703125 C 22.78125 -16.492188 22.632812 -14.269531 22.34375 -12.03125 C 22.050781 -9.789062 21.816406 -7.554688 21.640625 -5.328125 C 21.609375 -4.628906 21.519531 -3.96875 21.375 -3.34375 C 21.238281 -2.726562 20.828125 -2.234375 20.140625 -1.859375 C 19.691406 -1.648438 19.347656 -1.5625 19.109375 -1.59375 C 18.867188 -1.632812 18.269531 -1.722656 17.3125 -1.859375 C 17.238281 -1.828125 17.148438 -1.785156 17.046875 -1.734375 C 16.941406 -1.679688 16.835938 -1.617188 16.734375 -1.546875 C 15.148438 -0.890625 13.671875 -0.445312 12.296875 -0.21875 C 10.921875 0 9.5625 0.0351562 8.21875 -0.109375 Z M 9.859375 -5.265625 C 10.691406 -5.265625 11.507812 -5.375 12.3125 -5.59375 C 13.125 -5.820312 13.910156 -6.09375 14.671875 -6.40625 C 15.429688 -6.539062 15.859375 -6.625 15.953125 -6.65625 C 16.054688 -6.695312 16.25 -6.679688 16.53125 -6.609375 C 16.664062 -8.472656 16.851562 -10.320312 17.09375 -12.15625 C 17.332031 -14 17.472656 -15.851562 17.515625 -17.71875 C 16.234375 -17.09375 14.9375 -16.425781 13.625 -15.71875 C 12.320312 -15.019531 11.128906 -14.1875 10.046875 -13.21875 C 8.960938 -12.257812 8.054688 -11.109375 7.328125 -9.765625 C 7.085938 -9.316406 6.898438 -8.847656 6.765625 -8.359375 C 6.628906 -7.878906 6.578125 -7.382812 6.609375 -6.875 C 6.816406 -6.21875 7.171875 -5.8125 7.671875 -5.65625 C 8.171875 -5.5 8.898438 -5.367188 9.859375 -5.265625 Z M 9.859375 -5.265625 "/></g></g></g></g></g><path stroke-linecap="butt" transform="matrix(0.748881, -0.040955, 0.040955, 0.748881, 184.143069, 92.793124)" fill="none" stroke-linejoin="miter" d="M 1.064736 7.558797 C -0.825053 -1.187657 40.116176 -1.186368 123.883506 7.557179 " stroke="#ff914d" stroke-width="2" stroke-opacity="1" stroke-miterlimit="4"/></svg>