<svg xmlns="http://www.w3.org/2000/svg" width="500" height="500" viewBox="0 0 375 375"><defs><clipPath id="d089bdc512"><path d="M41 123.816h132.227V258H41Zm0 0"/></clipPath><clipPath id="f0f4357c56"><path d="M23.227 199H92v60.566H23.227Zm0 0"/></clipPath></defs><g clip-path="url(#d089bdc512)"><path fill="#1e1e1e" d="M107.383 123.86c-36.305 0-65.848 29.863-65.848 66.566 0 1.183.957 2.14 2.137 2.14h60.023l-30.007 52.637a2.135 2.135 0 0 0 .777 2.906 65.27 65.27 0 0 0 32.906 8.918c36.3 0 65.844-29.886 65.844-66.613.012-36.691-29.52-66.555-65.832-66.555m-49.82 64.425c1.113-26.836 23.03-48.324 49.832-48.324 27.496 0 49.875 22.637 49.875 50.465 0 27.851-22.368 50.508-49.875 50.508a49.2 49.2 0 0 1-23.055-5.73l24.605-43.169.317-.539c.02-.047.043-.078.066-.125a2 2 0 0 0 .168-.484c0-.012.012-.032.012-.043v-.012a2.2 2.2 0 0 0-.246-1.477 1 1 0 0 0-.082-.125 2.14 2.14 0 0 0-1.774-.945Zm49.82 64.473a61 61 0 0 1-28.903-7.297l3.723-6.531a53.6 53.6 0 0 0 25.18 6.297c29.86 0 54.148-24.575 54.148-54.79 0-30.18-24.289-54.742-54.148-54.742-29.149 0-52.992 23.403-54.106 52.602h-7.422c1.125-33.356 28.293-60.149 61.528-60.149 33.941 0 61.558 27.942 61.558 62.29.012 34.359-27.605 62.32-61.558 62.32m0 0"/></g><g clip-path="url(#f0f4357c56)"><path fill="#1e1e1e" d="M90.93 202.61c.191-.325.28-.696.28-1.067a2.1 2.1 0 0 0-.112-.688 1.6 1.6 0 0 0-.18-.382 2.13 2.13 0 0 0-1.844-1.07h-63.71c-1.18 0-2.137.956-2.137 2.14 0 23.672 12.609 45.777 32.886 57.691.325.192.707.293 1.078.293.18 0 .371-.023.551-.066a2.14 2.14 0 0 0 1.305-1.004l29.387-51.477Zm-5.543 1.081-23.102 40.477c-13.7-8.852-22.344-24.047-23.043-40.477Zm-28.961 50.723c-17.297-11.004-28.184-30.113-28.89-50.723h7.421c.7 17.965 10.168 34.575 25.191 44.192Zm0 0"/></g><path fill="#1e1e1e" d="M133.688 194.523c0 5.915 4.769 10.735 10.625 10.735 5.859 0 10.628-4.809 10.628-10.735 0-5.886-4.77-10.687-10.629-10.687-5.867 0-10.625 4.8-10.625 10.687m10.625-6.406c3.5 0 6.355 2.871 6.355 6.399 0 3.547-2.844 6.441-6.356 6.441-3.496 0-6.351-2.894-6.351-6.441 0-3.528 2.844-6.399 6.351-6.399m-31.428-23.402c5.86 0 10.625-4.809 10.625-10.719 0-5.914-4.766-10.723-10.625-10.723-5.86 0-10.63 4.809-10.63 10.723.013 5.91 4.77 10.719 10.63 10.719m0-17.172c3.496 0 6.351 2.894 6.351 6.441s-2.843 6.442-6.351 6.442c-3.5 0-6.356-2.895-6.356-6.442.012-3.547 2.856-6.441 6.356-6.441m-28.836 7.148c-5.86 0-10.629 4.809-10.629 10.723s4.77 10.723 10.629 10.723c5.836 0 10.582-4.809 10.582-10.723s-4.746-10.723-10.582-10.723m0 17.176c-3.496 0-6.356-2.894-6.356-6.441s2.848-6.442 6.356-6.442c3.476 0 6.308 2.895 6.308 6.442s-2.832 6.441-6.308 6.441m-13.238 46.52c3.89 0 6.953-3.075 6.953-7.004a6.96 6.96 0 0 0-6.953-6.957c-3.801 0-6.903 3.117-6.903 6.957 0 3.863 3.09 7.004 6.903 7.004m0-9.684c1.496 0 2.668 1.172 2.668 2.68 0 1.52-1.172 2.715-2.668 2.715-1.473 0-2.618-1.196-2.618-2.715-.011-1.508 1.145-2.68 2.618-2.68m43.546-31.16c0-3.863-3.117-7.004-6.949-7.004-3.836 0-6.953 3.14-6.953 7.004s3.117 7.004 6.953 7.004c3.832 0 6.95-3.14 6.95-7.004m-9.617 0c0-1.5 1.192-2.727 2.668-2.727 1.473 0 2.664 1.22 2.664 2.727 0 1.496-1.191 2.715-2.664 2.715-1.465.012-2.668-1.219-2.668-2.715m.394 38.82c-3.836 0-6.95 3.14-6.95 7.004s3.114 7.004 6.95 7.004 6.949-3.14 6.949-7.004-3.113-7.004-6.95-7.004m0 9.719c-1.473 0-2.664-1.219-2.664-2.727 0-1.5 1.191-2.714 2.664-2.714 1.472 0 2.664 1.214 2.664 2.714 0 1.508-1.192 2.727-2.664 2.727m0 0"/><path fill="#1e1e1e" d="M67.953 224.66c0-5.484-4.398-9.933-9.805-9.933-5.41 0-9.808 4.46-9.808 9.933 0 5.453 4.398 9.899 9.808 9.899 5.407 0 9.805-4.434 9.805-9.899m-15.328 0c0-3.117 2.473-5.652 5.523-5.652 3.047 0 5.52 2.535 5.52 5.652 0 3.043-2.531 5.61-5.52 5.61-3.05 0-5.523-2.512-5.523-5.61m82.602-44.39c3.835 0 6.949-3.145 6.949-7.008 0-3.86-3.113-7.004-6.95-7.004-3.835 0-6.949 3.144-6.949 7.004 0 3.863 3.114 7.008 6.95 7.008m0-9.73c1.472 0 2.668 1.214 2.668 2.71 0 1.5-1.196 2.727-2.668 2.727s-2.665-1.215-2.665-2.727c-.011-1.484 1.192-2.71 2.665-2.71m-14.282 23.308c-5.86 0-10.629 4.8-10.629 10.687 0 5.914 4.77 10.723 10.63 10.723 5.859 0 10.628-4.809 10.628-10.723 0-5.898-4.77-10.687-10.629-10.687m0 17.129c-3.496 0-6.355-2.891-6.355-6.442 0-3.523 2.847-6.394 6.355-6.394s6.356 2.87 6.356 6.394c-.012 3.55-2.86 6.442-6.356 6.442m0 0"/><path d="M191.195 166.604c6.82-.102 12.063.765 15.72 2.61q5.483 2.751 5.483 8.187-.002 2.719-1.843 5-1.845 2.284-4.735 4.078a43 43 0 0 1-6.11 3.156 68 68 0 0 1-6.202 2.281q-2.953.925-4.875 1.328a84 84 0 0 1-.406 6.407q-.315 3.188-.547 6.312a67 67 0 0 0-.047 4.406q.047 2.392.047 3.672-.001 1.845-1.203 2.719c-.805.586-1.657.875-2.563.875-1.437 0-2.492-.504-3.156-1.516q-1.001-1.513-1-4.234-.001-.968.156-3.078.154-2.122.36-4.766c.132-1.758.265-3.46.39-5.11q.2-2.483.281-4.171.172-3.123.125-6.844a187 187 0 0 0-.203-7.234c0-.645-.055-1.55-.156-2.719a489 489 0 0 0-.328-3.515q-.16-1.765-.281-2.797-.111-1.046-.11-.485.076-2.249 1.516-3.156 1.434-.92 3.953-1.156c1.687-.164 3.598-.25 5.734-.25m-11.203 4.562v.078zm8.64 14.39q1.203-.387 3.641-1.155a53 53 0 0 0 5.032-1.875q2.608-1.124 4.437-2.407 1.842-1.278 1.844-2.562c0-.738-.336-1.27-1-1.594-.668-.32-1.445-.547-2.328-.672q-1.314-.2-2.422-.375-2.72-.64-5.281-.64c-1.711 0-3.203.058-4.485.172.157 1.812.274 3.652.36 5.515q.122 2.8.203 5.594m39.281-12.469q-.974.001-1.922-.484-1.05-.64-1.484-1.485a3.7 3.7 0 0 1-.438-1.718q-.002-1.594 1.156-2.907c.77-.882 1.692-1.328 2.766-1.328q.949 0 1.922.469 1.03.563 1.469 1.453.452.878.453 1.75 0 1.612-1.172 2.938c-.774.875-1.688 1.312-2.75 1.312m-1.844 44.313q-1.61 0-2.719-1.125-.721-.715-.968-1.828a11.4 11.4 0 0 1-.235-2.329q-.001-1.2.11-2.359.124-1.156.125-1.953c0-3.738.007-7.79.03-12.156q.048-6.56.141-12.172.076-1.765 1.36-2.844c.851-.719 1.812-1.078 2.875-1.078q1.594 0 2.719 1.125.716.72.953 1.844c.164.742.25 1.511.25 2.312 0 .805-.043 1.578-.125 2.328a18 18 0 0 0-.125 2q-.082 5.595-.047 12.157c.031 4.375-.008 8.43-.11 12.156-.054 1.18-.507 2.125-1.359 2.844q-1.282 1.078-2.875 1.078m32.804-.001q-1.207 0-2.407-.234a19 19 0 0 0-2.234-.328 49 49 0 0 1-3.328-.515 35 35 0 0 0-3.719-.485q-1.768-.123-2.797.516c-.699.43-1.39.64-2.078.64a3.8 3.8 0 0 1-2.656-1.03q-1.112-1.046-1.11-2.641c0-1.227.399-2.454 1.204-3.672q1.201-1.842 2.156-3.203a76 76 0 0 1 5.406-7.36 62.4 62.4 0 0 1 6.281-6.562 7 7 0 0 1-.687-.032 6 6 0 0 0-.766-.046q-2.626 0-5.234.515-2.594.516-5.313.516-1.69.002-2.734-1.156-1.031-1.156-1.031-2.61-.001-1.184.718-2.234.873-1.278 3-1.875 2.123-.608 4.954-.766a48 48 0 0 1 5.796.047q2.966.205 5.61.61 2.639.39 4.328.859 1.435.329 2.11 1.531c.456.805.687 1.656.687 2.563q0 2.312-1.406 3.39-1.394 1.08-2.922 2.36a67 67 0 0 0-6.078 5.89 61 61 0 0 0-5.282 6.672q1.044.081 3.328.203 2.279.128 4.75.485 2.484.362 4.235 1.28 1.764.908 1.765 2.595 0 1.675-1.203 2.875-1.188 1.205-3.343 1.203m33.196-.001q-1.205 0-2.406-.234a19 19 0 0 0-2.234-.328 49 49 0 0 1-3.328-.515 35 35 0 0 0-3.72-.485q-1.767-.123-2.796.516c-.7.43-1.39.64-2.078.64a3.8 3.8 0 0 1-2.656-1.03c-.743-.696-1.11-1.579-1.11-2.641 0-1.227.399-2.454 1.203-3.672q1.202-1.842 2.157-3.203a76 76 0 0 1 5.406-7.36 62.4 62.4 0 0 1 6.281-6.562 7 7 0 0 1-.687-.032 6 6 0 0 0-.766-.046q-2.626 0-5.234.515-2.594.516-5.313.516-1.69.002-2.734-1.156-1.032-1.156-1.032-2.61 0-1.184.72-2.234.872-1.278 3-1.875 2.121-.608 4.952-.766a48 48 0 0 1 5.797.047q2.966.205 5.61.61c1.757.261 3.203.546 4.328.859q1.435.329 2.11 1.531c.456.805.687 1.656.687 2.563q0 2.312-1.407 3.39-1.393 1.08-2.922 2.36a67 67 0 0 0-6.078 5.89 61 61 0 0 0-5.28 6.672q1.042.081 3.327.203 2.279.128 4.75.485 2.484.362 4.235 1.28 1.764.908 1.765 2.595 0 1.675-1.203 2.875-1.188 1.205-3.344 1.203m20.869-.157q-5.203-.715-7.969-4.078c-1.836-2.238-2.75-4.691-2.75-7.36q0-3.526 1.844-6.89c1.227-2.238 2.563-4.18 4-5.828a27.7 27.7 0 0 1 4.516-4.203q2.436-1.793 5.828-3.562 3.404-1.763 8.297-4-.8-2.796-2.688-4.594-1.876-1.81-4.078-2.36-2.204-.562-4.172.36-1.956.906-2.984 3.625c-.274.699-.766 1.25-1.485 1.656q-1.078.596-2.203.594-1.441 0-2.765-1.031-1.313-1.043-1.313-2.813-.001-1.594.875-3.187.89-1.605 2.125-3 1.25-1.406 2.281-2.125 1.84-1.36 3.797-1.922a14.4 14.4 0 0 1 3.969-.563q3.75.002 7.188 1.844 3.45 1.829 6 4.922 2.561 3.08 3.453 6.906.637 3.049.718 5.125.078 2.081.079 3.688-.001 5.109-.688 10.312-.675 5.204-1.078 10.406a17.7 17.7 0 0 1-.406 3.032q-.315 1.439-1.907 2.328c-.699.312-1.234.445-1.609.39q-.549-.075-2.797-.39l-.406.203a4 4 0 0 0-.469.265q-3.691 1.534-6.89 2.047-3.189.515-6.313.203m2.563-8q1.92 0 3.796-.515 1.873-.529 3.641-1.25 1.765-.31 2-.39c.156-.063.445-.036.875.077q.329-4.325.89-8.61c.376-2.85.587-5.718.641-8.593q-2.97 1.44-6.015 3.078a29 29 0 0 0-5.547 3.89c-1.68 1.493-3.078 3.274-4.203 5.345q-.563 1.048-.891 2.172a6.7 6.7 0 0 0-.234 2.312q.48 1.518 1.64 1.875 1.17.363 3.406.61m0 0"/><path fill="none" stroke="#ff914d" stroke-width="3" d="M187.5 231.453q-4.113-15.025 142.43-7.789"/></svg>